Coordinates
version=1
nRows=41
nColumns=38
inDegrees=no

Units are S.I. units (second, meters, Newtons, ...)
If the header above contains a line with 'inDegrees', this indicates whether rotational values are in degrees (yes) or radians (no).

endheader
time	pelvis_tilt	pelvis_list	pelvis_rotation	pelvis_tx	pelvis_ty	pelvis_tz	hip_flexion_r	hip_adduction_r	hip_rotation_r	knee_angle_r	ankle_angle_r	subtalar_angle_r	mtp_angle_r	hip_flexion_l	hip_adduction_l	hip_rotation_l	knee_angle_l	ankle_angle_l	subtalar_angle_l	mtp_angle_l	lumbar_extension	lumbar_bending	lumbar_rotation	arm_flex_r	arm_add_r	arm_rot_r	elbow_flex_r	pro_sup_r	wrist_flex_r	wrist_dev_r	arm_flex_l	arm_add_l	arm_rot_l	elbow_flex_l	pro_sup_l	wrist_flex_l	wrist_dev_l
115	-1.23524	1.54469	-2.90692	0.975383	-0.621833	1.06862	0.033636	0.0611223	-0.244309	0.144162	-0.338504	0	0	0.421832	-0.177494	-0.162239	0.722575	-0.34345	0	0	-0.517301	-0.123221	0.0932681	0.0941229	-0.384432	-0.0774217	2.04381	1.5708	0	0	0.217852	0.0262706	-0.972623	0.64769	1.5708	0	0
115.01	-1.18398	1.54444	-2.96255	0.975722	-0.621613	1.06853	0.0374541	0.060649	-0.243169	0.148124	-0.339679	0	0	0.423867	-0.175737	-0.161627	0.725096	-0.336261	0	0	-0.515931	-0.124982	0.0884714	0.103293	-0.383843	-0.0664726	2.0382	1.5708	0	0	0.215945	0.0319384	-0.993696	0.659178	1.5708	0	0
115.02	-1.34887	1.55941	-2.805	0.97388	-0.62129	1.06534	0.039779	0.0747689	-0.245107	0.152749	-0.338494	0	0	0.436746	-0.188517	-0.149602	0.760233	-0.312758	0	0	-0.506207	-0.108596	0.0954746	0.10693	-0.398459	-0.0574744	2.03752	1.5708	0	0	0.20408	0.0497073	-1.01691	0.680304	1.5708	0	0
115.03	-2.57715	1.53616	-1.58228	0.976179	-0.623308	1.06983	-0.0262808	0.0949568	-0.320278	0.0458156	-0.446236	0	0	0.405536	-0.200321	-0.14804	0.760726	-0.315915	0	0	-0.577977	-0.127873	0.0528272	0.162907	-0.399348	-0.0190082	2.03294	1.5708	0	0	0.20581	0.112789	-1.15712	0.848621	1.5708	0	0
115.04	-1.32273	1.55689	-2.83714	0.974549	-0.621273	1.0656	0.0438128	0.072365	-0.244957	0.160611	-0.335729	0	0	0.437272	-0.182631	-0.144533	0.76644	-0.31237	0	0	-0.508608	-0.112714	0.0911514	0.117863	-0.397483	-0.0471173	2.0331	1.5708	0	0	0.202264	0.0568367	-1.02978	0.698181	1.5708	0	0
115.05	-1.09112	1.55616	-3.07257	0.974871	-0.621049	1.06541	0.0502983	0.0708822	-0.243234	0.167868	-0.325132	0	0	0.440145	-0.179344	-0.140788	0.768372	-0.311829	0	0	-0.504107	-0.113651	0.0932309	0.118807	-0.396902	-0.0449582	2.03164	1.5708	0	0	0.202959	0.0557978	-1.0263	0.693951	1.5708	0	0
115.06	-1.06858	1.555	-3.09773	0.975168	-0.621026	1.06559	0.0519836	0.0699486	-0.241695	0.169745	-0.324959	0	0	0.44029	-0.175577	-0.135916	0.76993	-0.311981	0	0	-0.504356	-0.114543	0.0932768	0.121608	-0.396622	-0.0422244	2.03089	1.5708	0	0	0.203372	0.0567394	-1.02663	0.696023	1.5708	0	0
115.07	-0.371837	1.54935	2.4861	0.974831	-0.620494	1.06475	0.0688639	0.0682034	-0.238911	0.17495	-0.324129	0	0	0.454102	-0.168987	-0.12568	0.776456	-0.305691	0	0	-0.475468	-0.0996746	0.110463	0.109337	-0.396722	-0.0475607	2.02862	1.5708	0	0	0.218946	0.027236	-0.977818	0.600135	1.5708	0	0
115.08	-1.06383	1.55222	-3.10639	0.975655	-0.621214	1.066	0.0554772	0.0669267	-0.240384	0.175677	-0.322477	0	0	0.4393	-0.164182	-0.118616	0.774469	-0.298351	0	0	-0.507219	-0.117276	0.0852103	0.134292	-0.395233	-0.0285866	2.02604	1.5708	0	0	0.199239	0.0602597	-1.03529	0.711311	1.5708	0	0
115.09	-0.976152	1.55101	3.08595	0.97594	-0.621058	1.06604	0.0583087	0.0659874	-0.237533	0.17665	-0.323113	0	0	0.439811	-0.159864	-0.11211	0.771477	-0.297219	0	0	-0.505533	-0.118223	0.0853748	0.136611	-0.394625	-0.0251896	2.02501	1.5708	0	0	0.19955	0.0597023	-1.03464	0.71022	1.5708	0	0
115.1	-0.169625	1.53841	2.27474	0.975622	-0.619828	1.0643	0.0852679	0.0648419	-0.230311	0.181416	-0.321922	0	0	0.461868	-0.154932	-0.103061	0.765247	-0.30654	0	0	-0.456413	-0.0963906	0.11991	0.107883	-0.39449	-0.0428756	2.02453	1.5708	0	0	0.225335	0.00838846	-0.934653	0.55042	1.5708	0	0
115.11	-0.0111178	1.52214	2.12322	0.978375	-0.623805	1.06752	0.0825452	0.0638276	-0.306083	0.0995248	-0.419899	0	0	0.400951	-0.0555856	0.197187	0.593776	-0.225338	0	0	-0.465209	-0.108085	0.0958625	0.129161	-0.384128	-0.0312194	2.01741	1.5708	0	0	0.232332	0.0128495	-0.959314	0.584689	1.5708	0	0
115.12	-0.616438	1.52478	2.73149	0.979217	-0.624873	1.06736	0.0914658	0.0412936	-0.231344	0.198011	-0.315032	0	0	0.364531	-0.0285609	0.232892	0.571991	-0.217153	0	0	-0.528593	-0.160731	0.0234067	0.179199	-0.373942	0.0112422	2.01503	1.5708	0	0	0.2072	0.091991	-1.14128	0.831626	1.5708	0	0
115.13	-0.302369	1.51499	2.40983	0.978709	-0.623455	1.06573	0.111855	0.0419635	-0.224601	0.200392	-0.314827	0	0	0.386788	-0.0309828	0.220172	0.581474	-0.218655	0	0	-0.479598	-0.141707	0.0657321	0.148293	-0.378947	-0.00873213	2.01277	1.5708	0	0	0.204196	0.0478601	-1.03152	0.709131	1.5708	0	0
115.14	-0.146129	1.52325	2.24439	0.97995	-0.623976	1.06821	0.0825066	0.0586582	-0.303655	0.108477	-0.412286	0	0	0.381677	-0.0428489	0.228849	0.571514	-0.225546	0	0	-0.485467	-0.129075	0.0794732	0.153146	-0.383331	-0.00883756	2.01402	1.5708	0	0	0.212045	0.0418685	-1.01263	0.684842	1.5708	0	0
115.15	-0.2829	1.50975	2.38187	0.979443	-0.623291	1.06555	0.117008	0.0393167	-0.220816	0.199748	-0.316204	0	0	0.384243	-0.0228157	0.238267	0.570327	-0.226876	0	0	-0.474341	-0.14551	0.072712	0.147369	-0.379089	-0.00893726	2.01341	1.5708	0	0	0.204168	0.0445071	-1.01904	0.703371	1.5708	0	0
115.16	-0.272983	1.5081	2.36764	0.979832	-0.623205	1.06548	0.118385	0.0389448	-0.22002	0.198153	-0.317123	0	0	0.383027	-0.0204165	0.243355	0.565473	-0.228932	0	0	-0.473228	-0.146892	0.0741697	0.149384	-0.379071	-0.00666685	2.01319	1.5708	0	0	0.203596	0.0443861	-1.01776	0.704467	1.5708	0	0
115.17	-0.268211	1.50722	2.35982	0.980168	-0.623322	1.06548	0.119377	0.0385112	-0.221099	0.197312	-0.318043	0	0	0.380524	-0.0179532	0.249979	0.558697	-0.227822	0	0	-0.473136	-0.14728	0.0743529	0.152393	-0.378946	-0.00406491	2.01267	1.5708	0	0	0.203628	0.0444365	-1.01768	0.705847	1.5708	0	0
115.18	-0.261804	1.5066	2.34964	0.980468	-0.623317	1.06542	0.120391	0.0382005	-0.222156	0.197093	-0.318504	0	0	0.378041	-0.0162267	0.255835	0.553097	-0.231078	0	0	-0.471519	-0.146761	0.0768307	0.15412	-0.37903	-0.00244116	2.01185	1.5708	0	0	0.203352	0.0427078	-1.01267	0.702218	1.5708	0	0
115.19	-0.236535	1.50509	2.31814	0.980857	-0.622853	1.06507	0.122744	0.0386732	-0.220896	0.196595	-0.318771	0	0	0.376751	-0.016393	0.257992	0.548549	-0.234623	0	0	-0.465841	-0.1472	0.0836727	0.152404	-0.379356	-0.00282901	2.01071	1.5708	0	0	0.20279	0.0401537	-1.00548	0.694996	1.5708	0	0
115.2	-0.17876	1.49935	2.25566	0.981126	-0.622592	1.06442	0.131075	0.0376996	-0.219403	0.198372	-0.318101	0	0	0.375124	-0.0128811	0.276129	0.533089	-0.23922	0	0	-0.458182	-0.145858	0.0838775	0.155267	-0.377553	0.00254913	2.0094	1.5708	0	0	0.199576	0.0341405	-0.993929	0.684872	1.5708	0	0
115.21	-0.0521119	1.51338	2.11842	0.982428	-0.62288	1.06694	0.0938373	0.0585371	-0.294874	0.105246	-0.413575	0	0	0.369003	-0.0335066	0.262665	0.535414	-0.247449	0	0	-0.470594	-0.133308	0.0952113	0.165045	-0.383194	0.00635593	2.00868	1.5708	0	0	0.203763	0.034775	-0.987549	0.679222	1.5708	0	0
115.22	-0.0260264	1.5114	2.08829	0.982772	-0.622794	1.06659	0.0955846	0.0593737	-0.293265	0.102207	-0.418622	0	0	0.363991	-0.0322412	0.276455	0.52298	-0.247475	0	0	-0.466722	-0.132957	0.0979758	0.165747	-0.383185	0.00761211	2.00778	1.5708	0	0	0.203344	0.0321461	-0.98268	0.674257	1.5708	0	0
115.23	0.0271107	1.51088	2.02926	0.98296	-0.622165	1.06604	0.0969016	0.0623558	-0.293084	0.100802	-0.420947	0	0	0.366012	-0.0372405	0.267623	0.526134	-0.247124	0	0	-0.459953	-0.128038	0.105054	0.164591	-0.384015	0.0089661	2.00695	1.5708	0	0	0.204615	0.0265778	-0.975104	0.655685	1.5708	0	0
115.24	0.0453172	1.50917	2.00605	0.983497	-0.621888	1.06563	0.0987571	0.0632159	-0.290688	0.099452	-0.423867	0	0	0.361378	-0.0369454	0.277169	0.514835	-0.24703	0	0	-0.456015	-0.128575	0.110027	0.163271	-0.383308	0.00840407	2.00675	1.5708	0	0	0.202588	0.0230503	-0.962108	0.650925	1.5708	0	0
115.25	0.0694794	1.50832	1.9757	0.984125	-0.621255	1.06526	0.0995063	0.0655123	-0.28798	0.098044	-0.425297	0	0	0.360462	-0.0413821	0.272475	0.50768	-0.219286	0	0	-0.451841	-0.127888	0.11646	0.161928	-0.382316	0.00847714	2.00658	1.5708	0	0	0.201767	0.0180755	-0.94945	0.640691	1.5708	0	0
115.26	0.0891176	1.50695	1.95007	0.984638	-0.620739	1.06486	0.101166	0.0671712	-0.28523	0.0978976	-0.425116	0	0	0.36026	-0.0428512	0.271252	0.50591	-0.213477	0	0	-0.448263	-0.128096	0.121361	0.16127	-0.381193	0.00911163	2.00656	1.5708	0	0	0.199944	0.0150647	-0.93961	0.635483	1.5708	0	0
115.27	0.105472	1.50524	1.92856	0.985085	-0.620286	1.06461	0.103202	0.0683814	-0.283001	0.097961	-0.424799	0	0	0.360824	-0.0435837	0.270825	0.504928	-0.212042	0	0	-0.444023	-0.126882	0.126378	0.160456	-0.379857	0.00961709	2.0063	1.5708	0	0	0.201265	0.00970971	-0.928004	0.622111	1.5708	0	0
115.28	0.114211	1.5048	1.91524	0.985586	-0.61988	1.06448	0.104001	0.0695159	-0.281023	0.0986082	-0.424304	0	0	0.360496	-0.0443496	0.270426	0.504895	-0.212076	0	0	-0.441754	-0.126349	0.131213	0.159646	-0.37866	0.00937328	2.00641	1.5708	0	0	0.201791	0.00466789	-0.914288	0.612521	1.5708	0	0
115.29	0.132342	1.50387	1.8932	0.985999	-0.619483	1.06428	0.105257	0.0711308	-0.278907	0.0988047	-0.424102	0	0	0.361131	-0.0450921	0.272459	0.505286	-0.212796	0	0	-0.438467	-0.124766	0.135601	0.158902	-0.377748	0.00983401	2.00608	1.5708	0	0	0.203157	-0.00118338	-0.900683	0.599944	1.5708	0	0
115.3	0.127159	1.49795	1.89604	0.986725	-0.618262	1.06305	0.109714	0.0704531	-0.279001	0.0968572	-0.421414	0	0	0.366716	-0.0436534	0.272738	0.506656	-0.21249	0	0	-0.366507	-0.104225	0.283603	0.0159297	-0.38468	-0.144525	2.03191	1.5708	0	0	0.407729	-0.124841	0.0227197	0.0536976	1.5708	0	0
115.31	0.155389	1.49652	1.86439	0.986998	-0.618242	1.063	0.112913	0.072261	-0.274964	0.0995103	-0.420326	0	0	0.36916	-0.0445242	0.275093	0.507331	-0.213525	0	0	-0.394905	-0.10054	0.182723	0.127578	-0.377396	-0.0161283	1.99854	1.5708	0	0	0.458387	-0.135308	-0.177878	0	1.5708	0	0
115.32	0.16024	1.49971	1.85695	0.98728	-0.618142	1.06313	0.109657	0.0739427	-0.274235	0.099413	-0.420215	0	0	0.366186	-0.0454725	0.275845	0.508134	-0.212449	0	0	-0.396453	-0.101578	0.191107	0.121716	-0.377826	-0.0243993	2.00095	1.5708	0	0	0.464841	-0.132365	-0.116919	0	1.5708	0	0
115.33	0.167801	1.50243	1.84683	0.987515	-0.618032	1.06328	0.106919	0.0755378	-0.273248	0.0990925	-0.42034	0	0	0.363486	-0.0462379	0.277295	0.509183	-0.210545	0	0	-0.398248	-0.102677	0.198181	0.116719	-0.377856	-0.0318344	2.00345	1.5708	0	0	0.470546	-0.129811	-0.0675994	0	1.5708	0	0
115.34	0.181952	1.50449	1.83002	0.987852	-0.617766	1.06335	0.104908	0.0776788	-0.272334	0.0988982	-0.420234	0	0	0.361155	-0.0474994	0.278153	0.509939	-0.20811	0	0	-0.399588	-0.103383	0.204376	0.112551	-0.377248	-0.0379406	2.00605	1.5708	0	0	0.475601	-0.127548	-0.0277193	0	1.5708	0	0
115.35	0.203295	1.50607	1.80609	0.988079	-0.617545	1.06336	0.103655	0.0800523	-0.271139	0.0992564	-0.419786	0	0	0.359715	-0.0486746	0.280037	0.511624	-0.205442	0	0	-0.400246	-0.103375	0.209725	0.109201	-0.376539	-0.0429994	2.0079	1.5708	0	0	0.479631	-0.125215	0.00480781	0	1.5708	0	0
115.36	0.223138	1.50816	1.78399	0.988179	-0.617499	1.06342	0.102187	0.0821529	-0.26989	0.100361	-0.41882	0	0	0.357777	-0.0494355	0.282429	0.51319	-0.203192	0	0	-0.401896	-0.102788	0.214293	0.108132	-0.37998	-0.047823	2.00672	1.5708	0	0	0.483348	-0.122862	0.0307634	0	1.5708	0	0
115.37	0.237623	1.50887	1.76712	0.988261	-0.617309	1.06344	0.10229	0.0834531	-0.268986	0.102136	-0.41754	0	0	0.356438	-0.0495132	0.285193	0.513414	-0.202036	0	0	-0.401397	-0.103398	0.216795	0.106147	-0.375813	-0.0491461	2.00881	1.5708	0	0	0.485586	-0.121779	0.0513179	0	1.5708	0	0
115.38	0.251725	1.50895	1.75141	0.988506	-0.617681	1.06366	0.103857	0.0844058	-0.268067	0.103953	-0.416333	0	0	0.356682	-0.0486163	0.289716	0.513158	-0.201989	0	0	-0.411206	-0.105363	0.221531	0.101031	-0.376154	-0.053497	2.00725	1.5708	0	0	0.465373	-0.125661	0.0662864	0	1.5708	0	0
115.39	0.26133	1.50938	1.73952	0.988611	-0.617435	1.06366	0.10408	0.0850703	-0.266241	0.105735	-0.415354	0	0	0.35502	-0.0483693	0.292491	0.511881	-0.202612	0	0	-0.411263	-0.105976	0.222726	0.101231	-0.374943	-0.0541853	2.00667	1.5708	0	0	0.466086	-0.125534	0.0822711	0	1.5708	0	0
115.4	0.273409	1.50967	1.72503	0.988778	-0.617091	1.06365	0.104108	0.0859481	-0.263431	0.107052	-0.414416	0	0	0.353249	-0.0486685	0.293919	0.510198	-0.203511	0	0	-0.410886	-0.106717	0.223991	0.101397	-0.373497	-0.0545734	2.00574	1.5708	0	0	0.466764	-0.125633	0.0949546	0	1.5708	0	0
